<svg width="178" height="68" viewBox="0 0 178 68" fill="none" xmlns="http://www.w3.org/2000/svg">
<path d="M40.5006 26.4443C38.4966 26.4443 36.5747 27.2405 35.1579 28.6573C33.7408 30.0743 32.9448 31.9962 32.9448 33.9999C32.9448 36.0039 33.7408 37.9255 35.1579 39.3426C36.5747 40.7594 38.4966 41.5554 40.5006 41.5554C42.5043 41.5554 44.4262 40.7594 45.843 39.3426C47.26 37.9255 48.056 36.0039 48.056 33.9999C48.056 31.9962 47.26 30.0743 45.843 28.6573C44.4262 27.2405 42.5043 26.4443 40.5006 26.4443ZM40.5006 26.4443L32.9982 26.4444C32.9688 26.4444 32.9448 26.4205 32.9448 26.391M40.5006 26.4443C42.5043 26.4443 44.4262 25.6484 45.843 24.2313C47.26 22.8145 48.056 20.8927 48.056 18.8888C48.056 16.8849 47.26 14.9631 45.843 13.5463C44.4262 12.1292 42.5043 11.3333 40.5006 11.3333H32.9982C32.9688 11.3333 32.9448 11.3571 32.9448 11.3866M32.9448 26.391V11.3866M32.9448 26.391C32.9448 26.4205 32.9206 26.4444 32.8912 26.4444M32.9448 11.3866C32.9448 11.3571 32.9206 11.3333 32.8912 11.3333H25.3889C23.385 11.3333 21.4632 12.1292 20.0464 13.5463C18.6293 14.9631 17.8334 16.8849 17.8334 18.8888C17.8334 20.8927 18.6293 22.8145 20.0464 24.2313C21.4632 25.6484 23.385 26.4444 25.3889 26.4444M25.3889 41.5556C23.385 41.5556 21.4632 42.3514 20.0464 43.7685C18.6293 45.1855 17.8334 47.1071 17.8334 49.1111C17.8334 51.1149 18.6293 53.0367 20.0464 54.4535C21.4632 55.8706 23.385 56.6666 25.3889 56.6666C27.3928 56.6666 29.3147 55.8706 30.7315 54.4535C32.1486 53.0367 32.9446 51.1149 32.9446 49.1111V41.609C32.9446 41.5794 32.9206 41.5556 32.8912 41.5556M25.3889 41.5556H32.8912M25.3889 41.5556C23.385 41.5556 21.4632 40.7594 20.0464 39.3426C18.6293 37.9255 17.8334 36.0039 17.8334 33.9999C17.8334 31.9962 18.6293 30.0743 20.0464 28.6573C21.4632 27.2405 23.385 26.4444 25.3889 26.4444M32.8912 41.5556C32.9206 41.5556 32.9446 41.5317 32.9446 41.5021V26.4977C32.9446 26.4682 32.9206 26.4444 32.8912 26.4444M25.3889 26.4444H32.8912" stroke="white" stroke-width="1.25" stroke-linecap="round"/>
<path d="M82.81 44C82.49 44 82.21 43.89 81.97 43.67C81.75 43.43 81.64 43.15 81.64 42.83V21.74C81.64 21.4 81.75 21.12 81.97 20.9C82.19 20.68 82.47 20.57 82.81 20.57H96.88C97.22 20.57 97.5 20.68 97.72 20.9C97.94 21.1 98.05 21.37 98.05 21.71C98.05 22.01 97.94 22.27 97.72 22.49C97.5 22.71 97.22 22.82 96.88 22.82H83.98V31.1H93.37C93.71 31.1 93.99 31.21 94.21 31.43C94.43 31.65 94.54 31.92 94.54 32.24C94.54 32.56 94.43 32.83 94.21 33.05C93.99 33.27 93.71 33.38 93.37 33.38H83.98V42.83C83.98 43.15 83.87 43.43 83.65 43.67C83.43 43.89 83.15 44 82.81 44ZM103.6 44C103.24 44 102.95 43.9 102.73 43.7C102.53 43.48 102.43 43.19 102.43 42.83V28.76C102.43 28.4 102.53 28.12 102.73 27.92C102.95 27.7 103.24 27.59 103.6 27.59C103.94 27.59 104.21 27.7 104.41 27.92C104.63 28.12 104.74 28.4 104.74 28.76V42.83C104.74 43.19 104.63 43.48 104.41 43.7C104.21 43.9 103.94 44 103.6 44ZM103.57 24.47C103.13 24.47 102.75 24.31 102.43 23.99C102.11 23.67 101.95 23.28 101.95 22.82C101.95 22.32 102.11 21.93 102.43 21.65C102.77 21.35 103.16 21.2 103.6 21.2C104.02 21.2 104.39 21.35 104.71 21.65C105.05 21.93 105.22 22.32 105.22 22.82C105.22 23.28 105.06 23.67 104.74 23.99C104.42 24.31 104.03 24.47 103.57 24.47ZM117.852 44.15C116.272 44.15 114.872 43.8 113.652 43.1C112.432 42.38 111.472 41.39 110.772 40.13C110.092 38.87 109.752 37.43 109.752 35.81C109.752 34.17 110.112 32.72 110.832 31.46C111.552 30.2 112.542 29.22 113.802 28.52C115.062 27.8 116.492 27.44 118.092 27.44C119.712 27.44 121.142 27.8 122.382 28.52C123.642 29.22 124.622 30.2 125.322 31.46C126.042 32.72 126.412 34.17 126.432 35.81L125.082 36.53C125.082 38.01 124.772 39.33 124.152 40.49C123.532 41.63 122.672 42.53 121.572 43.19C120.492 43.83 119.252 44.15 117.852 44.15ZM118.152 50.48C116.572 50.48 115.182 50.18 113.982 49.58C112.782 49 111.792 48.2 111.012 47.18C110.792 46.94 110.692 46.68 110.712 46.4C110.752 46.12 110.902 45.89 111.162 45.71C111.422 45.53 111.712 45.47 112.032 45.53C112.352 45.59 112.602 45.74 112.782 45.98C113.362 46.7 114.102 47.28 115.002 47.72C115.922 48.16 116.982 48.38 118.182 48.38C119.302 48.38 120.312 48.11 121.212 47.57C122.112 47.03 122.822 46.27 123.342 45.29C123.882 44.31 124.152 43.16 124.152 41.84V37.28L125.022 35.54L126.432 35.81V41.93C126.432 43.55 126.072 45 125.352 46.28C124.632 47.58 123.652 48.6 122.412 49.34C121.172 50.1 119.752 50.48 118.152 50.48ZM118.092 42.05C119.272 42.05 120.312 41.79 121.212 41.27C122.132 40.73 122.852 39.99 123.372 39.05C123.892 38.11 124.152 37.03 124.152 35.81C124.152 34.59 123.892 33.51 123.372 32.57C122.852 31.61 122.132 30.87 121.212 30.35C120.312 29.81 119.272 29.54 118.092 29.54C116.912 29.54 115.862 29.81 114.942 30.35C114.022 30.87 113.302 31.61 112.782 32.57C112.262 33.51 112.002 34.59 112.002 35.81C112.002 37.03 112.262 38.11 112.782 39.05C113.302 39.99 114.022 40.73 114.942 41.27C115.862 41.79 116.912 42.05 118.092 42.05ZM153.095 44C152.755 44 152.475 43.9 152.255 43.7C152.035 43.48 151.925 43.2 151.925 42.86V34.22C151.925 32.8 151.555 31.68 150.815 30.86C150.075 30.02 149.125 29.6 147.965 29.6C146.725 29.6 145.705 30.02 144.905 30.86C144.125 31.68 143.745 32.78 143.765 34.16H141.695C141.715 32.82 142.005 31.64 142.565 30.62C143.125 29.6 143.895 28.81 144.875 28.25C145.855 27.69 146.965 27.41 148.205 27.41C149.385 27.41 150.425 27.69 151.325 28.25C152.245 28.81 152.955 29.6 153.455 30.62C153.975 31.64 154.235 32.84 154.235 34.22V42.86C154.235 43.2 154.125 43.48 153.905 43.7C153.705 43.9 153.435 44 153.095 44ZM132.095 44C131.735 44 131.445 43.9 131.225 43.7C131.025 43.48 130.925 43.2 130.925 42.86V28.76C130.925 28.42 131.025 28.14 131.225 27.92C131.445 27.7 131.735 27.59 132.095 27.59C132.435 27.59 132.705 27.7 132.905 27.92C133.125 28.14 133.235 28.42 133.235 28.76V42.86C133.235 43.2 133.125 43.48 132.905 43.7C132.705 43.9 132.435 44 132.095 44ZM142.625 44C142.285 44 142.005 43.9 141.785 43.7C141.565 43.48 141.455 43.2 141.455 42.86V34.22C141.455 32.8 141.085 31.68 140.345 30.86C139.605 30.02 138.655 29.6 137.495 29.6C136.255 29.6 135.235 30.01 134.435 30.83C133.635 31.63 133.235 32.68 133.235 33.98H131.585C131.625 32.7 131.905 31.57 132.425 30.59C132.965 29.59 133.695 28.81 134.615 28.25C135.535 27.69 136.575 27.41 137.735 27.41C138.915 27.41 139.955 27.69 140.855 28.25C141.775 28.81 142.485 29.6 142.985 30.62C143.505 31.64 143.765 32.84 143.765 34.22V42.86C143.765 43.2 143.655 43.48 143.435 43.7C143.235 43.9 142.965 44 142.625 44ZM166.573 44.15C165.033 44.15 163.653 43.79 162.433 43.07C161.213 42.33 160.243 41.33 159.523 40.07C158.823 38.81 158.473 37.39 158.473 35.81C158.473 34.21 158.833 32.78 159.553 31.52C160.293 30.26 161.293 29.27 162.553 28.55C163.813 27.81 165.233 27.44 166.813 27.44C168.393 27.44 169.803 27.81 171.043 28.55C172.303 29.27 173.293 30.26 174.013 31.52C174.753 32.78 175.133 34.21 175.153 35.81L174.223 36.53C174.223 37.97 173.883 39.27 173.203 40.43C172.543 41.57 171.633 42.48 170.473 43.16C169.333 43.82 168.033 44.15 166.573 44.15ZM166.813 42.05C167.973 42.05 169.003 41.78 169.903 41.24C170.823 40.7 171.543 39.96 172.063 39.02C172.603 38.06 172.873 36.99 172.873 35.81C172.873 34.61 172.603 33.54 172.063 32.6C171.543 31.66 170.823 30.92 169.903 30.38C169.003 29.82 167.973 29.54 166.813 29.54C165.673 29.54 164.643 29.82 163.723 30.38C162.803 30.92 162.073 31.66 161.533 32.6C160.993 33.54 160.723 34.61 160.723 35.81C160.723 36.99 160.993 38.06 161.533 39.02C162.073 39.96 162.803 40.7 163.723 41.24C164.643 41.78 165.673 42.05 166.813 42.05ZM173.983 44C173.643 44 173.363 43.9 173.143 43.7C172.923 43.48 172.813 43.2 172.813 42.86V37.73L173.383 35.36L175.153 35.81V42.86C175.153 43.2 175.043 43.48 174.823 43.7C174.603 43.9 174.323 44 173.983 44Z" fill="white"/>
</svg>
