<svg width="144" height="68" viewBox="0 0 144 68" fill="none" xmlns="http://www.w3.org/2000/svg">
<path d="M38.2135 41.1297C39.4551 40.3041 41.3753 39.5809 41.3753 39.5809C41.3753 39.5809 36.1814 40.4065 30.8826 40.9249C24.4471 41.2321 17.5639 41.4369 14.0664 40.9249C5.82961 39.8881 18.4628 37.1041 18.4628 37.1041C18.4628 37.1041 13.4963 36.7937 7.29158 39.5809C0.296468 42.6785 25.2341 44.1249 38.21 41.1297M26.703 37.0017C23.9924 31.6321 15.301 26.9857 26.703 18.8288C40.8052 8.50561 33.4708 2 33.4708 2C36.5172 12.6336 23.0901 15.8336 18.3509 22.3392C15.0771 26.6753 20.0472 31.5265 26.703 37.0017ZM42.2707 15.1136C42.2707 15.1136 18.2354 20.688 29.7424 32.6625C33.128 36.1729 28.84 39.3761 28.84 39.3761C28.84 39.3761 37.4161 35.3473 33.4673 30.1857C29.8578 25.4369 26.9234 23.0624 42.2707 15.1136ZM41.4802 48.7713C41.3683 48.8737 41.3683 48.8737 41.3683 49.0785C58.8561 44.8481 52.5395 34.1089 44.0754 36.8961C43.8337 36.952 43.6078 37.0547 43.4129 37.1971C43.2181 37.3395 43.0588 37.5183 42.9457 37.7217C43.4004 37.6193 43.8481 37.4113 44.5266 37.3089C48.4788 36.5857 54.5716 42.5761 41.4802 48.7713ZM47.8003 56.6177C47.8003 56.6177 49.717 58.0609 45.5409 59.1969C37.6434 61.3665 12.7058 61.9841 5.70719 59.3025C3.112 58.2689 7.96661 56.8225 9.32017 56.5121C10.8976 56.2049 11.688 56.4097 11.688 56.4097C8.98091 54.6561 -6.25446 59.9201 4.01437 61.3665C32.1138 65.7025 55.1347 59.7121 47.8003 56.6177ZM17.3296 51.4529C6.72498 54.2433 23.877 59.9201 37.5315 54.5505C36.1989 54.0698 34.9151 53.483 33.6947 52.7969C27.4865 53.9329 24.7759 53.9329 19.2497 53.4145C14.6225 52.9025 17.3296 51.4529 17.3296 51.4529ZM41.9314 63.6385C31.3233 65.3921 17.7808 65.1842 9.9987 64.0513C9.9987 64.0513 11.5761 65.1873 19.8128 65.8049C32.3411 66.5281 51.7456 65.3922 52.2002 59.8177C52.2002 59.8177 51.4098 62.0897 41.9314 63.6385ZM35.8387 46.0865C27.7138 47.5297 22.9746 47.5297 17.1057 46.9121C12.4785 46.4961 15.5248 44.4353 15.5248 44.4353C3.79053 48.0481 22.0688 52.1793 38.7731 47.6353C37.7588 47.3249 36.8529 46.8097 35.8352 46.0865" fill="white"/>
<path d="M76.9 44.3C75.56 44.3 74.36 43.99 73.3 43.37C72.24 42.75 71.4 41.91 70.78 40.85C70.16 39.79 69.85 38.6 69.85 37.28C69.85 36.94 69.96 36.66 70.18 36.44C70.4 36.22 70.68 36.11 71.02 36.11C71.36 36.11 71.64 36.22 71.86 36.44C72.08 36.66 72.19 36.94 72.19 37.28C72.19 38.18 72.4 39 72.82 39.74C73.24 40.46 73.8 41.03 74.5 41.45C75.22 41.87 76.02 42.08 76.9 42.08C77.78 42.08 78.57 41.87 79.27 41.45C79.99 41.01 80.55 40.43 80.95 39.71C81.37 38.99 81.58 38.18 81.58 37.28V21.74C81.58 21.4 81.69 21.12 81.91 20.9C82.13 20.68 82.41 20.57 82.75 20.57C83.09 20.57 83.37 20.68 83.59 20.9C83.81 21.12 83.92 21.4 83.92 21.74V37.28C83.92 38.6 83.61 39.79 82.99 40.85C82.37 41.91 81.53 42.75 80.47 43.37C79.41 43.99 78.22 44.3 76.9 44.3ZM96.8577 44.15C95.3177 44.15 93.9377 43.79 92.7177 43.07C91.4977 42.33 90.5277 41.33 89.8077 40.07C89.1077 38.81 88.7577 37.39 88.7577 35.81C88.7577 34.21 89.1177 32.78 89.8377 31.52C90.5777 30.26 91.5777 29.27 92.8377 28.55C94.0977 27.81 95.5177 27.44 97.0977 27.44C98.6777 27.44 100.088 27.81 101.328 28.55C102.588 29.27 103.578 30.26 104.298 31.52C105.038 32.78 105.418 34.21 105.438 35.81L104.508 36.53C104.508 37.97 104.168 39.27 103.488 40.43C102.828 41.57 101.918 42.48 100.758 43.16C99.6177 43.82 98.3177 44.15 96.8577 44.15ZM97.0977 42.05C98.2577 42.05 99.2877 41.78 100.188 41.24C101.108 40.7 101.828 39.96 102.348 39.02C102.888 38.06 103.158 36.99 103.158 35.81C103.158 34.61 102.888 33.54 102.348 32.6C101.828 31.66 101.108 30.92 100.188 30.38C99.2877 29.82 98.2577 29.54 97.0977 29.54C95.9577 29.54 94.9277 29.82 94.0077 30.38C93.0877 30.92 92.3577 31.66 91.8177 32.6C91.2777 33.54 91.0077 34.61 91.0077 35.81C91.0077 36.99 91.2777 38.06 91.8177 39.02C92.3577 39.96 93.0877 40.7 94.0077 41.24C94.9277 41.78 95.9577 42.05 97.0977 42.05ZM104.268 44C103.928 44 103.648 43.9 103.428 43.7C103.208 43.48 103.098 43.2 103.098 42.86V37.73L103.668 35.36L105.438 35.81V42.86C105.438 43.2 105.328 43.48 105.108 43.7C104.888 43.9 104.608 44 104.268 44ZM114.632 44C114.152 44 113.792 43.74 113.552 43.22L106.892 29.09C106.772 28.83 106.762 28.57 106.862 28.31C106.962 28.05 107.162 27.85 107.462 27.71C107.742 27.57 108.012 27.55 108.272 27.65C108.532 27.75 108.732 27.93 108.872 28.19L115.262 42.02H114.032L120.332 28.19C120.452 27.91 120.652 27.73 120.932 27.65C121.232 27.55 121.522 27.56 121.802 27.68C122.082 27.82 122.272 28.03 122.372 28.31C122.472 28.57 122.462 28.82 122.342 29.06L115.772 43.22C115.532 43.74 115.152 44 114.632 44ZM132.248 44.15C130.708 44.15 129.328 43.79 128.108 43.07C126.888 42.33 125.918 41.33 125.198 40.07C124.498 38.81 124.148 37.39 124.148 35.81C124.148 34.21 124.508 32.78 125.228 31.52C125.968 30.26 126.968 29.27 128.228 28.55C129.488 27.81 130.908 27.44 132.488 27.44C134.068 27.44 135.478 27.81 136.718 28.55C137.978 29.27 138.968 30.26 139.688 31.52C140.428 32.78 140.808 34.21 140.828 35.81L139.898 36.53C139.898 37.97 139.558 39.27 138.878 40.43C138.218 41.57 137.308 42.48 136.148 43.16C135.008 43.82 133.708 44.15 132.248 44.15ZM132.488 42.05C133.648 42.05 134.678 41.78 135.578 41.24C136.498 40.7 137.218 39.96 137.738 39.02C138.278 38.06 138.548 36.99 138.548 35.81C138.548 34.61 138.278 33.54 137.738 32.6C137.218 31.66 136.498 30.92 135.578 30.38C134.678 29.82 133.648 29.54 132.488 29.54C131.348 29.54 130.318 29.82 129.398 30.38C128.478 30.92 127.748 31.66 127.208 32.6C126.668 33.54 126.398 34.61 126.398 35.81C126.398 36.99 126.668 38.06 127.208 39.02C127.748 39.96 128.478 40.7 129.398 41.24C130.318 41.78 131.348 42.05 132.488 42.05ZM139.658 44C139.318 44 139.038 43.9 138.818 43.7C138.598 43.48 138.488 43.2 138.488 42.86V37.73L139.058 35.36L140.828 35.81V42.86C140.828 43.2 140.718 43.48 140.498 43.7C140.278 43.9 139.998 44 139.658 44Z" fill="white"/>
</svg>
