<svg width="245" height="68" viewBox="0 0 245 68" fill="none" xmlns="http://www.w3.org/2000/svg">
<g clip-path="url(#clip0_173_1418)">
<path d="M0.5 8C0.5 4.68629 3.18629 2 6.5 2H54.5C57.8137 2 60.5 4.68629 60.5 8V60C60.5 63.3137 57.8137 66 54.5 66H6.5C3.18629 66 0.5 63.3137 0.5 60V8ZM55.5285 50.6483C55.5416 50.6686 55.5728 50.6566 55.5689 50.6327C55.1049 47.7581 53.3026 45.3356 48.0775 43.0747C46.2375 42.1547 44.1925 41.5147 43.585 40.0347C43.3575 39.1547 43.3225 38.6747 43.47 38.1547C43.845 36.432 45.7575 35.9147 47.2575 36.3947C47.4297 36.4512 47.5996 36.5227 47.7657 36.6092C49.132 37.3205 51.1028 37.8028 52.3767 36.9367C53.46 36.2003 53.6346 34.8427 52.7607 33.8669C52.7148 33.8156 52.6681 33.7651 52.62 33.7147C51.045 31.8347 48.9475 30.8747 45.535 30.9573L43.7725 31.1947C42.0825 31.6347 40.4725 32.5947 39.4975 33.8747C36.6475 37.3173 37.47 43.3173 40.92 45.7973C44.3325 48.5173 49.3225 49.1147 49.96 51.6773C50.56 54.7973 47.785 55.7973 45.045 55.4373C43.9782 55.1848 43.162 54.7654 42.4477 54.1333C41.2499 53.0734 39.5551 52.55 38.1912 53.3855C36.9758 54.1301 36.4813 55.6645 37.3888 56.7637C37.6064 57.0273 37.8441 57.3069 38.1075 57.6347C42.4575 62.3173 53.3325 62.0773 55.285 54.9573C55.3565 54.7208 55.87 53.1239 55.4872 50.6648C55.4835 50.6408 55.5154 50.6278 55.5285 50.6483ZM33.1175 31.5653C33.1229 31.4845 33.0588 31.416 32.9778 31.416H30.2235C28.7235 31.416 27.5076 32.632 27.5057 34.132C27.5003 38.3864 27.485 42.6276 27.485 46.896C27.485 50.1813 27.6425 53.1973 27.14 54.1253C26.4319 55.7024 24.766 55.7529 23.698 55.5315C23.3784 55.4653 23.0743 55.3371 22.805 55.1527C22.0803 54.6563 21.6439 54.0049 21.15 53.1253C20.9531 52.7752 20.6536 52.7203 20.318 52.941L19.6498 53.3803C17.704 54.6598 16.8634 57.3185 18.5871 58.8845C18.8986 59.1675 19.2297 59.4234 19.58 59.648C21.7175 61.008 24.59 61.448 27.5975 60.728C29.555 60.1253 31.2425 58.8853 32.125 56.9653C33.4 54.4853 33.13 51.4453 33.1175 48.0427C33.1475 42.5653 33.1175 37.0853 33.1175 31.5653Z" fill="white"/>
</g>
<path d="M84.9 44.3C83.56 44.3 82.36 43.99 81.3 43.37C80.24 42.75 79.4 41.91 78.78 40.85C78.16 39.79 77.85 38.6 77.85 37.28C77.85 36.94 77.96 36.66 78.18 36.44C78.4 36.22 78.68 36.11 79.02 36.11C79.36 36.11 79.64 36.22 79.86 36.44C80.08 36.66 80.19 36.94 80.19 37.28C80.19 38.18 80.4 39 80.82 39.74C81.24 40.46 81.8 41.03 82.5 41.45C83.22 41.87 84.02 42.08 84.9 42.08C85.78 42.08 86.57 41.87 87.27 41.45C87.99 41.01 88.55 40.43 88.95 39.71C89.37 38.99 89.58 38.18 89.58 37.28V21.74C89.58 21.4 89.69 21.12 89.91 20.9C90.13 20.68 90.41 20.57 90.75 20.57C91.09 20.57 91.37 20.68 91.59 20.9C91.81 21.12 91.92 21.4 91.92 21.74V37.28C91.92 38.6 91.61 39.79 90.99 40.85C90.37 41.91 89.53 42.75 88.47 43.37C87.41 43.99 86.22 44.3 84.9 44.3ZM104.858 44.15C103.318 44.15 101.938 43.79 100.718 43.07C99.4977 42.33 98.5277 41.33 97.8077 40.07C97.1077 38.81 96.7577 37.39 96.7577 35.81C96.7577 34.21 97.1177 32.78 97.8377 31.52C98.5777 30.26 99.5777 29.27 100.838 28.55C102.098 27.81 103.518 27.44 105.098 27.44C106.678 27.44 108.088 27.81 109.328 28.55C110.588 29.27 111.578 30.26 112.298 31.52C113.038 32.78 113.418 34.21 113.438 35.81L112.508 36.53C112.508 37.97 112.168 39.27 111.488 40.43C110.828 41.57 109.918 42.48 108.758 43.16C107.618 43.82 106.318 44.15 104.858 44.15ZM105.098 42.05C106.258 42.05 107.288 41.78 108.188 41.24C109.108 40.7 109.828 39.96 110.348 39.02C110.888 38.06 111.158 36.99 111.158 35.81C111.158 34.61 110.888 33.54 110.348 32.6C109.828 31.66 109.108 30.92 108.188 30.38C107.288 29.82 106.258 29.54 105.098 29.54C103.958 29.54 102.928 29.82 102.008 30.38C101.088 30.92 100.358 31.66 99.8177 32.6C99.2777 33.54 99.0077 34.61 99.0077 35.81C99.0077 36.99 99.2777 38.06 99.8177 39.02C100.358 39.96 101.088 40.7 102.008 41.24C102.928 41.78 103.958 42.05 105.098 42.05ZM112.268 44C111.928 44 111.648 43.9 111.428 43.7C111.208 43.48 111.098 43.2 111.098 42.86V37.73L111.668 35.36L113.438 35.81V42.86C113.438 43.2 113.328 43.48 113.108 43.7C112.888 43.9 112.608 44 112.268 44ZM122.632 44C122.152 44 121.792 43.74 121.552 43.22L114.892 29.09C114.772 28.83 114.762 28.57 114.862 28.31C114.962 28.05 115.162 27.85 115.462 27.71C115.742 27.57 116.012 27.55 116.272 27.65C116.532 27.75 116.732 27.93 116.872 28.19L123.262 42.02H122.032L128.332 28.19C128.452 27.91 128.652 27.73 128.932 27.65C129.232 27.55 129.522 27.56 129.802 27.68C130.082 27.82 130.272 28.03 130.372 28.31C130.472 28.57 130.462 28.82 130.342 29.06L123.772 43.22C123.532 43.74 123.152 44 122.632 44ZM140.248 44.15C138.708 44.15 137.328 43.79 136.108 43.07C134.888 42.33 133.918 41.33 133.198 40.07C132.498 38.81 132.148 37.39 132.148 35.81C132.148 34.21 132.508 32.78 133.228 31.52C133.968 30.26 134.968 29.27 136.228 28.55C137.488 27.81 138.908 27.44 140.488 27.44C142.068 27.44 143.478 27.81 144.718 28.55C145.978 29.27 146.968 30.26 147.688 31.52C148.428 32.78 148.808 34.21 148.828 35.81L147.898 36.53C147.898 37.97 147.558 39.27 146.878 40.43C146.218 41.57 145.308 42.48 144.148 43.16C143.008 43.82 141.708 44.15 140.248 44.15ZM140.488 42.05C141.648 42.05 142.678 41.78 143.578 41.24C144.498 40.7 145.218 39.96 145.738 39.02C146.278 38.06 146.548 36.99 146.548 35.81C146.548 34.61 146.278 33.54 145.738 32.6C145.218 31.66 144.498 30.92 143.578 30.38C142.678 29.82 141.648 29.54 140.488 29.54C139.348 29.54 138.318 29.82 137.398 30.38C136.478 30.92 135.748 31.66 135.208 32.6C134.668 33.54 134.398 34.61 134.398 35.81C134.398 36.99 134.668 38.06 135.208 39.02C135.748 39.96 136.478 40.7 137.398 41.24C138.318 41.78 139.348 42.05 140.488 42.05ZM147.658 44C147.318 44 147.038 43.9 146.818 43.7C146.598 43.48 146.488 43.2 146.488 42.86V37.73L147.058 35.36L148.828 35.81V42.86C148.828 43.2 148.718 43.48 148.498 43.7C148.278 43.9 147.998 44 147.658 44ZM160.821 44.3C159.541 44.3 158.351 44.12 157.251 43.76C156.171 43.38 155.231 42.85 154.431 42.17C153.631 41.49 153.021 40.7 152.601 39.8C152.441 39.48 152.431 39.19 152.571 38.93C152.731 38.65 152.991 38.46 153.351 38.36C153.631 38.28 153.901 38.31 154.161 38.45C154.441 38.59 154.651 38.8 154.791 39.08C155.091 39.66 155.531 40.18 156.111 40.64C156.691 41.1 157.381 41.46 158.181 41.72C158.981 41.96 159.861 42.08 160.821 42.08C161.881 42.08 162.821 41.91 163.641 41.57C164.461 41.21 165.101 40.7 165.561 40.04C166.041 39.36 166.281 38.54 166.281 37.58C166.281 36.36 165.831 35.31 164.931 34.43C164.031 33.55 162.621 32.99 160.701 32.75C158.361 32.47 156.531 31.75 155.211 30.59C153.891 29.41 153.231 27.97 153.231 26.27C153.231 25.05 153.551 23.99 154.191 23.09C154.851 22.19 155.751 21.5 156.891 21.02C158.031 20.52 159.341 20.27 160.821 20.27C161.921 20.27 162.921 20.45 163.821 20.81C164.721 21.15 165.501 21.61 166.161 22.19C166.841 22.75 167.391 23.37 167.811 24.05C168.011 24.37 168.071 24.68 167.991 24.98C167.931 25.28 167.761 25.51 167.481 25.67C167.181 25.81 166.871 25.83 166.551 25.73C166.251 25.63 166.021 25.44 165.861 25.16C165.561 24.7 165.181 24.27 164.721 23.87C164.281 23.45 163.741 23.12 163.101 22.88C162.461 22.64 161.691 22.51 160.791 22.49C159.211 22.49 157.941 22.83 156.981 23.51C156.021 24.17 155.541 25.14 155.541 26.42C155.541 27.1 155.721 27.73 156.081 28.31C156.441 28.87 157.031 29.36 157.851 29.78C158.691 30.18 159.811 30.48 161.211 30.68C163.711 31.04 165.561 31.81 166.761 32.99C167.981 34.15 168.591 35.67 168.591 37.55C168.591 38.63 168.391 39.59 167.991 40.43C167.611 41.27 167.061 41.98 166.341 42.56C165.641 43.12 164.811 43.55 163.851 43.85C162.911 44.15 161.901 44.3 160.821 44.3ZM180.504 44.15C178.924 44.15 177.514 43.79 176.274 43.07C175.054 42.33 174.084 41.33 173.364 40.07C172.664 38.81 172.314 37.39 172.314 35.81C172.314 34.21 172.654 32.78 173.334 31.52C174.014 30.26 174.944 29.27 176.124 28.55C177.304 27.81 178.664 27.44 180.204 27.44C181.424 27.44 182.544 27.68 183.564 28.16C184.604 28.64 185.514 29.36 186.294 30.32C186.514 30.56 186.594 30.82 186.534 31.1C186.474 31.36 186.304 31.59 186.024 31.79C185.804 31.95 185.554 32.01 185.274 31.97C185.014 31.91 184.784 31.76 184.584 31.52C183.424 30.2 181.964 29.54 180.204 29.54C179.084 29.54 178.094 29.81 177.234 30.35C176.394 30.89 175.734 31.63 175.254 32.57C174.794 33.51 174.564 34.59 174.564 35.81C174.564 37.01 174.814 38.08 175.314 39.02C175.814 39.96 176.514 40.7 177.414 41.24C178.314 41.78 179.344 42.05 180.504 42.05C181.284 42.05 181.994 41.95 182.634 41.75C183.294 41.53 183.874 41.2 184.374 40.76C184.614 40.56 184.864 40.45 185.124 40.43C185.384 40.41 185.624 40.49 185.844 40.67C186.084 40.89 186.214 41.14 186.234 41.42C186.274 41.7 186.184 41.94 185.964 42.14C184.504 43.48 182.684 44.15 180.504 44.15ZM191.986 33.89C192.046 32.65 192.366 31.54 192.946 30.56C193.546 29.58 194.316 28.81 195.256 28.25C196.216 27.69 197.276 27.41 198.436 27.41C199.356 27.41 200.066 27.54 200.566 27.8C201.066 28.06 201.256 28.44 201.136 28.94C201.056 29.24 200.916 29.44 200.716 29.54C200.536 29.64 200.306 29.68 200.026 29.66C199.766 29.64 199.466 29.62 199.126 29.6C198.006 29.5 197.006 29.62 196.126 29.96C195.266 30.28 194.576 30.78 194.056 31.46C193.556 32.14 193.306 32.95 193.306 33.89H191.986ZM192.166 44C191.806 44 191.526 43.9 191.326 43.7C191.126 43.5 191.026 43.22 191.026 42.86V28.73C191.026 28.37 191.126 28.09 191.326 27.89C191.526 27.69 191.806 27.59 192.166 27.59C192.526 27.59 192.806 27.69 193.006 27.89C193.206 28.09 193.306 28.37 193.306 28.73V42.86C193.306 43.22 193.206 43.5 193.006 43.7C192.806 43.9 192.526 44 192.166 44ZM206.416 44C206.056 44 205.766 43.9 205.546 43.7C205.346 43.48 205.246 43.19 205.246 42.83V28.76C205.246 28.4 205.346 28.12 205.546 27.92C205.766 27.7 206.056 27.59 206.416 27.59C206.756 27.59 207.026 27.7 207.226 27.92C207.446 28.12 207.556 28.4 207.556 28.76V42.83C207.556 43.19 207.446 43.48 207.226 43.7C207.026 43.9 206.756 44 206.416 44ZM206.386 24.47C205.946 24.47 205.566 24.31 205.246 23.99C204.926 23.67 204.766 23.28 204.766 22.82C204.766 22.32 204.926 21.93 205.246 21.65C205.586 21.35 205.976 21.2 206.416 21.2C206.836 21.2 207.206 21.35 207.526 21.65C207.866 21.93 208.036 22.32 208.036 22.82C208.036 23.28 207.876 23.67 207.556 23.99C207.236 24.31 206.846 24.47 206.386 24.47ZM214.608 51.02C214.248 51.02 213.958 50.91 213.738 50.69C213.538 50.49 213.438 50.21 213.438 49.85V35.69C213.458 34.13 213.828 32.73 214.548 31.49C215.288 30.23 216.278 29.24 217.518 28.52C218.778 27.8 220.188 27.44 221.748 27.44C223.348 27.44 224.778 27.81 226.038 28.55C227.298 29.27 228.288 30.26 229.008 31.52C229.748 32.78 230.118 34.21 230.118 35.81C230.118 37.39 229.758 38.81 229.038 40.07C228.338 41.33 227.378 42.33 226.158 43.07C224.938 43.79 223.558 44.15 222.018 44.15C220.678 44.15 219.458 43.87 218.358 43.31C217.278 42.73 216.408 41.97 215.748 41.03V49.85C215.748 50.21 215.638 50.49 215.418 50.69C215.218 50.91 214.948 51.02 214.608 51.02ZM221.748 42.05C222.908 42.05 223.948 41.78 224.868 41.24C225.788 40.7 226.508 39.96 227.028 39.02C227.568 38.06 227.838 36.99 227.838 35.81C227.838 34.61 227.568 33.54 227.028 32.6C226.508 31.66 225.788 30.92 224.868 30.38C223.948 29.82 222.908 29.54 221.748 29.54C220.608 29.54 219.578 29.82 218.658 30.38C217.738 30.92 217.018 31.66 216.498 32.6C215.978 33.54 215.718 34.61 215.718 35.81C215.718 36.99 215.978 38.06 216.498 39.02C217.018 39.96 217.738 40.7 218.658 41.24C219.578 41.78 220.608 42.05 221.748 42.05ZM241.069 44C240.009 44 239.059 43.75 238.219 43.25C237.399 42.75 236.749 42.07 236.269 41.21C235.789 40.33 235.549 39.33 235.549 38.21V23.54C235.549 23.2 235.649 22.92 235.849 22.7C236.069 22.48 236.349 22.37 236.689 22.37C237.029 22.37 237.309 22.48 237.529 22.7C237.749 22.92 237.859 23.2 237.859 23.54V38.21C237.859 39.23 238.159 40.07 238.759 40.73C239.359 41.37 240.129 41.69 241.069 41.69H241.879C242.199 41.69 242.459 41.8 242.659 42.02C242.859 42.24 242.959 42.52 242.959 42.86C242.959 43.2 242.839 43.48 242.599 43.7C242.359 43.9 242.059 44 241.699 44H241.069ZM233.599 30.2C233.299 30.2 233.049 30.11 232.849 29.93C232.649 29.73 232.549 29.49 232.549 29.21C232.549 28.91 232.649 28.67 232.849 28.49C233.049 28.29 233.299 28.19 233.599 28.19H241.249C241.549 28.19 241.799 28.29 241.999 28.49C242.199 28.67 242.299 28.91 242.299 29.21C242.299 29.49 242.199 29.73 241.999 29.93C241.799 30.11 241.549 30.2 241.249 30.2H233.599Z" fill="white"/>
<defs>
<clipPath id="clip0_173_1418">
<rect width="60" height="64" fill="white" transform="translate(0.5 2)"/>
</clipPath>
</defs>
</svg>
