<svg width="152" height="68" viewBox="0 0 152 68" fill="none" xmlns="http://www.w3.org/2000/svg">
<path d="M36.5 5.1943C55.7825 5.1943 70.61 18.9222 70.61 34C70.61 49.0778 55.7712 62.8057 36.5 62.8057C17.2175 62.8057 2.39 49.0778 2.39 34C2.39 18.9222 17.2287 5.1943 36.5 5.1943ZM36.5 2C16.6213 2 0.5 16.3173 0.5 34C0.5 51.6827 16.6213 66 36.5 66C56.3787 66 72.5 51.6827 72.5 34C72.5 16.3173 56.3787 2 36.5 2ZM25.0475 31.4332C24.1587 39.1337 21.02 38.3351 17.1613 38.3351L18.7025 24.9115C22.9775 24.9115 25.88 24.1319 25.0475 31.4332ZM11.4575 51.9299H15.5863L16.565 43.4118C21.1887 43.4118 24.0575 43.9822 26.7125 39.7802C29.6487 35.2169 30.4137 27.098 28.3212 23.0291C27.23 20.8996 25.475 19.8538 23.09 19.8538H15.1363L11.4575 51.9299ZM32.3487 11.3167H36.455L35.4762 19.8348C39.02 19.8348 42.305 19.3975 43.8913 21.8693C45.5563 24.4551 44.7575 27.7635 42.9575 43.3737H38.795C40.5275 28.2769 40.8537 27.022 40.2238 25.8812C39.6162 24.7784 38.2325 25.0065 34.8913 25.0065L32.7762 43.3737H28.67L32.3487 11.3167ZM57.3125 31.4332C56.4125 39.2478 53.1837 38.3351 49.4262 38.3351L50.9675 24.9115C55.265 24.9115 58.145 24.1319 57.3125 31.4332ZM43.7225 51.9299H47.8625L48.8413 43.4118C53.7012 43.4118 56.39 43.8871 58.9888 39.7802C61.925 35.2169 62.69 27.098 60.5975 23.0291C59.5062 20.8996 57.7513 19.8538 55.3662 19.8538H47.4125L43.7225 51.9299Z" fill="white"/>
<path d="M92.67 44C92.33 44 92.05 43.89 91.83 43.67C91.61 43.45 91.5 43.17 91.5 42.83V21.74C91.5 21.4 91.61 21.12 91.83 20.9C92.05 20.68 92.33 20.57 92.67 20.57H98.67C100.15 20.57 101.46 20.9 102.6 21.56C103.74 22.2 104.63 23.09 105.27 24.23C105.91 25.37 106.23 26.69 106.23 28.19C106.23 29.65 105.91 30.95 105.27 32.09C104.63 33.21 103.74 34.1 102.6 34.76C101.46 35.4 100.15 35.72 98.67 35.72H93.84V42.83C93.84 43.17 93.73 43.45 93.51 43.67C93.29 43.89 93.01 44 92.67 44ZM93.84 33.47H98.67C99.69 33.47 100.6 33.25 101.4 32.81C102.2 32.35 102.82 31.72 103.26 30.92C103.72 30.12 103.95 29.21 103.95 28.19C103.95 27.13 103.72 26.2 103.26 25.4C102.82 24.6 102.2 23.97 101.4 23.51C100.6 23.05 99.69 22.82 98.67 22.82H93.84V33.47ZM111.039 44C110.699 44 110.419 43.89 110.199 43.67C109.979 43.45 109.869 43.17 109.869 42.83V21.74C109.869 21.4 109.979 21.12 110.199 20.9C110.419 20.68 110.699 20.57 111.039 20.57C111.379 20.57 111.659 20.68 111.879 20.9C112.099 21.12 112.209 21.4 112.209 21.74V31.1H126.849V21.74C126.849 21.4 126.959 21.12 127.179 20.9C127.399 20.68 127.679 20.57 128.019 20.57C128.359 20.57 128.639 20.68 128.859 20.9C129.079 21.12 129.189 21.4 129.189 21.74V42.83C129.189 43.17 129.079 43.45 128.859 43.67C128.639 43.89 128.359 44 128.019 44C127.679 44 127.399 43.89 127.179 43.67C126.959 43.45 126.849 43.17 126.849 42.83V33.2H112.209V42.83C112.209 43.17 112.099 43.45 111.879 43.67C111.659 43.89 111.379 44 111.039 44ZM136.352 44C136.012 44 135.732 43.89 135.512 43.67C135.292 43.45 135.182 43.17 135.182 42.83V21.74C135.182 21.4 135.292 21.12 135.512 20.9C135.732 20.68 136.012 20.57 136.352 20.57H142.352C143.832 20.57 145.142 20.9 146.282 21.56C147.422 22.2 148.312 23.09 148.952 24.23C149.592 25.37 149.912 26.69 149.912 28.19C149.912 29.65 149.592 30.95 148.952 32.09C148.312 33.21 147.422 34.1 146.282 34.76C145.142 35.4 143.832 35.72 142.352 35.72H137.522V42.83C137.522 43.17 137.412 43.45 137.192 43.67C136.972 43.89 136.692 44 136.352 44ZM137.522 33.47H142.352C143.372 33.47 144.282 33.25 145.082 32.81C145.882 32.35 146.502 31.72 146.942 30.92C147.402 30.12 147.632 29.21 147.632 28.19C147.632 27.13 147.402 26.2 146.942 25.4C146.502 24.6 145.882 23.97 145.082 23.51C144.282 23.05 143.372 22.82 142.352 22.82H137.522V33.47Z" fill="white"/>
</svg>
