<svg width="181" height="68" viewBox="0 0 181 68" fill="none" xmlns="http://www.w3.org/2000/svg">
<path fill-rule="evenodd" clip-rule="evenodd" d="M28.5 66C24.1636 66 21.78 66 19.7985 64.4574C18.9656 63.8338 18.1903 62.9477 17.6159 61.9303C16.2949 59.7313 16.2949 57.0072 16.2949 52.0513V47.9487H12.7051C8.36872 47.9487 5.98513 47.9487 4.00359 46.4062C3.17077 45.7826 2.39538 44.8964 1.82103 43.879C0.5 41.68 0.5 38.9559 0.5 34C0.5 29.0441 0.5 26.32 1.84974 24.0554C2.39538 23.1036 3.17077 22.2174 4.06103 21.561C5.98513 20.0513 8.36872 20.0513 12.7051 20.0513H16.2949V15.9487C16.2949 10.9928 16.2949 8.26872 17.6446 6.0041C18.1903 5.05231 18.9656 4.16615 19.8559 3.50974C21.78 2 24.1636 2 28.5 2C32.8364 2 35.22 2 37.2015 3.54256C38.0344 4.16615 38.8097 5.05231 39.3841 6.06974C40.7051 8.26872 40.7051 10.9928 40.7051 15.9487V20.0513H44.2949C48.6313 20.0513 51.0149 20.0513 52.9964 21.5938C53.8292 22.2174 54.6046 23.1036 55.179 24.121C56.5 26.32 56.5 29.0441 56.5 34C56.5 38.9559 56.5 41.68 55.1503 43.9446C54.6046 44.8964 53.8292 45.7826 52.939 46.439C51.0149 47.9487 48.6313 47.9487 44.2949 47.9487H40.7051V52.0513C40.7051 57.0072 40.7051 59.7313 39.3554 61.9959C38.8097 62.9477 38.0344 63.8338 37.1441 64.4903C35.22 66 32.8364 66 28.5 66ZM12.7051 24.9744C9.34513 24.9744 7.30615 24.9744 6.4159 25.6636C5.98513 25.959 5.66923 26.3528 5.43949 26.7467C4.80769 27.8297 4.80769 30.1272 4.80769 34C4.80769 37.8728 4.80769 40.1703 5.41077 41.1877C5.66923 41.68 6.01385 42.041 6.35846 42.3036C7.30615 43.0256 9.31641 43.0256 12.7051 43.0256H16.2949V34C16.2949 32.6544 17.2713 31.5385 18.4487 31.5385H36.3974V15.9487C36.3974 12.1087 36.3974 9.77846 35.7944 8.76103C35.5359 8.26872 35.1913 7.90769 34.8467 7.64513C33.899 6.92308 32.0036 6.92308 28.5 6.92308C24.9964 6.92308 23.101 6.92308 22.2108 7.61231C21.78 7.90769 21.4641 8.30154 21.2344 8.69538C20.6026 9.77846 20.6026 12.0759 20.6026 15.9487V20.0513H28.5C29.6774 20.0513 30.6538 21.1672 30.6538 22.5128C30.6538 23.8585 29.6774 24.9744 28.5 24.9744H12.7051ZM40.7051 24.9744V34C40.7051 35.3456 39.7287 36.4615 38.5513 36.4615H20.6026V52.0513C20.6026 55.8913 20.6026 58.2215 21.2056 59.239C21.4641 59.7313 21.8087 60.0923 22.1533 60.3549C23.101 61.0769 25.1113 61.0769 28.5 61.0769C31.8887 61.0769 33.899 61.0769 34.7892 60.3877C35.22 60.0923 35.5359 59.6985 35.7656 59.3046C36.3974 58.2215 36.3974 55.9241 36.3974 52.0513V47.9487H28.5C27.3226 47.9487 26.3462 46.8328 26.3462 45.4872C26.3462 44.1415 27.3226 43.0256 28.5 43.0256H44.2949C47.6549 43.0256 49.6938 43.0256 50.5841 42.3364C51.0149 42.041 51.3308 41.6472 51.5605 41.2533C52.1923 40.1703 52.1923 37.8728 52.1923 34C52.1923 30.1272 52.1923 27.8297 51.5892 26.8123C51.3308 26.32 50.9862 25.959 50.6415 25.6964C49.6938 24.9744 47.6836 24.9744 44.2949 24.9744H40.7051ZM23.4744 12.6995C23.4744 14.0451 24.4508 15.161 25.6282 15.161V15.1938C26.8056 15.1938 27.7821 14.0779 27.7821 12.6995C27.7821 12.0466 27.5551 11.4205 27.1512 10.9589C26.7473 10.4973 26.1994 10.2379 25.6282 10.2379C25.057 10.2379 24.5091 10.4973 24.1052 10.9589C23.7013 11.4205 23.4744 12.0466 23.4744 12.6995ZM29.2179 55.3333C29.2179 56.679 30.1944 57.7949 31.3718 57.7949V57.8277C32.5492 57.8277 33.5256 56.7118 33.5256 55.3333C33.5256 54.6805 33.2987 54.0544 32.8948 53.5928C32.4909 53.1311 31.943 52.8718 31.3718 52.8718C30.8006 52.8718 30.2527 53.1311 29.8488 53.5928C29.4449 54.0544 29.2179 54.6805 29.2179 55.3333Z" fill="white"/>
<path d="M76.67 44C76.33 44 76.05 43.89 75.83 43.67C75.61 43.45 75.5 43.17 75.5 42.83V21.74C75.5 21.4 75.61 21.12 75.83 20.9C76.05 20.68 76.33 20.57 76.67 20.57H82.67C84.15 20.57 85.46 20.9 86.6 21.56C87.74 22.2 88.63 23.09 89.27 24.23C89.91 25.37 90.23 26.69 90.23 28.19C90.23 29.65 89.91 30.95 89.27 32.09C88.63 33.21 87.74 34.1 86.6 34.76C85.46 35.4 84.15 35.72 82.67 35.72H77.84V42.83C77.84 43.17 77.73 43.45 77.51 43.67C77.29 43.89 77.01 44 76.67 44ZM77.84 33.47H82.67C83.69 33.47 84.6 33.25 85.4 32.81C86.2 32.35 86.82 31.72 87.26 30.92C87.72 30.12 87.95 29.21 87.95 28.19C87.95 27.13 87.72 26.2 87.26 25.4C86.82 24.6 86.2 23.97 85.4 23.51C84.6 23.05 83.69 22.82 82.67 22.82H77.84V33.47ZM96.3891 51.14C96.2291 51.14 96.0491 51.1 95.8491 51.02C95.1691 50.72 94.9791 50.24 95.2791 49.58L104.969 28.22C105.269 27.58 105.749 27.4 106.409 27.68C107.089 27.96 107.279 28.43 106.979 29.09L97.2591 50.45C97.0591 50.91 96.7691 51.14 96.3891 51.14ZM99.7191 43.49C99.4191 43.63 99.1391 43.66 98.8791 43.58C98.6191 43.48 98.4091 43.28 98.2491 42.98L91.5591 29.12C91.4191 28.82 91.3991 28.54 91.4991 28.28C91.5991 28.02 91.7991 27.82 92.0991 27.68C92.3991 27.54 92.6791 27.52 92.9391 27.62C93.1991 27.7 93.3991 27.89 93.5391 28.19L100.109 42.05C100.269 42.35 100.319 42.63 100.259 42.89C100.199 43.15 100.019 43.35 99.7191 43.49ZM116.425 44C115.365 44 114.415 43.75 113.575 43.25C112.755 42.75 112.105 42.07 111.625 41.21C111.145 40.33 110.905 39.33 110.905 38.21V23.54C110.905 23.2 111.005 22.92 111.205 22.7C111.425 22.48 111.705 22.37 112.045 22.37C112.385 22.37 112.665 22.48 112.885 22.7C113.105 22.92 113.215 23.2 113.215 23.54V38.21C113.215 39.23 113.515 40.07 114.115 40.73C114.715 41.37 115.485 41.69 116.425 41.69H117.235C117.555 41.69 117.815 41.8 118.015 42.02C118.215 42.24 118.315 42.52 118.315 42.86C118.315 43.2 118.195 43.48 117.955 43.7C117.715 43.9 117.415 44 117.055 44H116.425ZM108.955 30.2C108.655 30.2 108.405 30.11 108.205 29.93C108.005 29.73 107.905 29.49 107.905 29.21C107.905 28.91 108.005 28.67 108.205 28.49C108.405 28.29 108.655 28.19 108.955 28.19H116.605C116.905 28.19 117.155 28.29 117.355 28.49C117.555 28.67 117.655 28.91 117.655 29.21C117.655 29.49 117.555 29.73 117.355 29.93C117.155 30.11 116.905 30.2 116.605 30.2H108.955ZM123.245 37.31C122.885 37.31 122.595 37.2 122.375 36.98C122.175 36.76 122.075 36.48 122.075 36.14V21.74C122.075 21.38 122.175 21.1 122.375 20.9C122.595 20.68 122.885 20.57 123.245 20.57C123.585 20.57 123.855 20.68 124.055 20.9C124.275 21.1 124.385 21.38 124.385 21.74V36.14C124.385 36.48 124.275 36.76 124.055 36.98C123.855 37.2 123.585 37.31 123.245 37.31ZM136.145 44C135.805 44 135.525 43.89 135.305 43.67C135.085 43.45 134.975 43.18 134.975 42.86V35.06C134.975 33.82 134.735 32.8 134.255 32C133.795 31.2 133.155 30.6 132.335 30.2C131.535 29.8 130.625 29.6 129.605 29.6C128.625 29.6 127.735 29.79 126.935 30.17C126.155 30.55 125.535 31.07 125.075 31.73C124.615 32.39 124.385 33.14 124.385 33.98H122.735C122.775 32.72 123.115 31.6 123.755 30.62C124.395 29.62 125.245 28.84 126.305 28.28C127.365 27.7 128.545 27.41 129.845 27.41C131.265 27.41 132.535 27.71 133.655 28.31C134.775 28.89 135.655 29.75 136.295 30.89C136.955 32.03 137.285 33.42 137.285 35.06V42.86C137.285 43.18 137.175 43.45 136.955 43.67C136.735 43.89 136.465 44 136.145 44ZM123.245 44C122.885 44 122.595 43.9 122.375 43.7C122.175 43.48 122.075 43.2 122.075 42.86V28.76C122.075 28.4 122.175 28.12 122.375 27.92C122.595 27.7 122.885 27.59 123.245 27.59C123.585 27.59 123.855 27.7 124.055 27.92C124.275 28.12 124.385 28.4 124.385 28.76V42.86C124.385 43.2 124.275 43.48 124.055 43.7C123.855 43.9 123.585 44 123.245 44ZM149.848 44.15C148.248 44.15 146.818 43.79 145.558 43.07C144.298 42.35 143.308 41.36 142.588 40.1C141.868 38.84 141.508 37.41 141.508 35.81C141.508 34.19 141.868 32.75 142.588 31.49C143.308 30.23 144.298 29.24 145.558 28.52C146.818 27.8 148.248 27.44 149.848 27.44C151.448 27.44 152.868 27.8 154.108 28.52C155.368 29.24 156.358 30.23 157.078 31.49C157.798 32.75 158.168 34.19 158.188 35.81C158.188 37.41 157.818 38.84 157.078 40.1C156.358 41.36 155.368 42.35 154.108 43.07C152.868 43.79 151.448 44.15 149.848 44.15ZM149.848 42.05C151.008 42.05 152.048 41.78 152.968 41.24C153.888 40.7 154.608 39.96 155.128 39.02C155.648 38.08 155.908 37.01 155.908 35.81C155.908 34.61 155.648 33.54 155.128 32.6C154.608 31.64 153.888 30.89 152.968 30.35C152.048 29.81 151.008 29.54 149.848 29.54C148.688 29.54 147.648 29.81 146.728 30.35C145.808 30.89 145.078 31.64 144.538 32.6C144.018 33.54 143.758 34.61 143.758 35.81C143.758 37.01 144.018 38.08 144.538 39.02C145.078 39.96 145.808 40.7 146.728 41.24C147.648 41.78 148.688 42.05 149.848 42.05ZM176.75 44C176.41 44 176.13 43.89 175.91 43.67C175.69 43.45 175.58 43.18 175.58 42.86V35.06C175.58 33.82 175.34 32.8 174.86 32C174.4 31.2 173.76 30.6 172.94 30.2C172.14 29.8 171.23 29.6 170.21 29.6C169.23 29.6 168.34 29.79 167.54 30.17C166.76 30.55 166.14 31.07 165.68 31.73C165.22 32.39 164.99 33.14 164.99 33.98H163.34C163.38 32.72 163.72 31.6 164.36 30.62C165 29.62 165.85 28.84 166.91 28.28C167.97 27.7 169.15 27.41 170.45 27.41C171.87 27.41 173.14 27.71 174.26 28.31C175.38 28.89 176.26 29.75 176.9 30.89C177.56 32.03 177.89 33.42 177.89 35.06V42.86C177.89 43.18 177.78 43.45 177.56 43.67C177.34 43.89 177.07 44 176.75 44ZM163.85 44C163.49 44 163.2 43.9 162.98 43.7C162.78 43.48 162.68 43.2 162.68 42.86V28.76C162.68 28.4 162.78 28.12 162.98 27.92C163.2 27.7 163.49 27.59 163.85 27.59C164.19 27.59 164.46 27.7 164.66 27.92C164.88 28.12 164.99 28.4 164.99 28.76V42.86C164.99 43.2 164.88 43.48 164.66 43.7C164.46 43.9 164.19 44 163.85 44Z" fill="white"/>
</svg>
