<svg width="25" height="24" viewBox="0 0 25 24" fill="none" xmlns="http://www.w3.org/2000/svg">
<path d="M12.04 6.5625C13.0276 6.5625 13.9384 6.8157 14.726 7.31283C15.185 7.60249 15.7999 7.60632 16.1837 7.22257L17.3294 6.07686C17.7299 5.67632 17.7211 5.01805 17.265 4.68219C15.8307 3.6261 14.0721 3 12.04 3C8.5225 3 5.48125 5.0175 4 7.9575L6.9925 10.2787C7.70125 8.145 9.6925 6.5625 12.04 6.5625Z" stroke="white" stroke-width="1.25" stroke-linecap="round"/>
<path d="M21.1175 12.2063C21.1175 11.9155 21.1038 11.6293 21.0795 11.3482C21.0372 10.8578 20.6124 10.5 20.1202 10.5H13.5C12.9477 10.5 12.5 10.9477 12.5 11.5V12.8825C12.5 13.4348 12.9477 13.8825 13.5 13.8825H17.3525C17.135 14.9925 16.505 15.9375 15.56 16.575L18.4587 18.825C20.15 17.2575 21.1175 14.94 21.1175 12.2063Z" stroke="white" stroke-width="1.25" stroke-linecap="round"/>
<path d="M6.94875 13.7637C6.76875 13.22 6.66375 12.6425 6.66375 12.0425C6.66375 11.4425 6.765 10.865 6.94875 10.3212L3.95625 8C3.345 9.215 3 10.5875 3 12.0425C3 13.4975 3.345 14.87 3.96 16.085L6.94875 13.7637Z" stroke="white" stroke-width="1.25" stroke-linecap="round"/>
<path d="M12.0437 21.2825C14.4737 21.2825 16.5174 20.4837 18.0024 19.1037L15.1038 16.8537C14.2975 17.3975 13.2587 17.7162 12.0437 17.7162C9.69625 17.7162 7.705 16.1337 6.9925 14L4 16.3212C5.485 19.265 8.52625 21.2825 12.0437 21.2825Z" stroke="white" stroke-width="1.25" stroke-linecap="round"/>
</svg>
