<svg width="206" height="277" viewBox="0 0 206 277" fill="none" xmlns="http://www.w3.org/2000/svg">
<path d="M70.8799 151.07V189.88C70.8799 198.68 78.0199 205.81 86.8199 205.81H197.36C201.76 205.81 205.33 209.38 205.33 213.78V268.53C205.33 272.93 201.76 276.5 197.36 276.5H71.92C67.52 276.5 63.95 272.93 63.95 268.53V228.68C63.95 219.88 56.82 212.74 48.0099 212.74H8.16995C3.76995 212.74 0.199951 209.17 0.199951 204.77V150.02C0.199951 145.62 3.76995 142.05 8.16995 142.05H48.0099C56.82 142.05 63.95 134.91 63.95 126.11V87.3C63.95 78.5 56.82 71.36 48.0099 71.36H8.16995C3.76995 71.36 0.199951 67.79 0.199951 63.39V8.64005C0.199951 4.24005 3.76995 0.670044 8.16995 0.670044H62.92C67.32 0.670044 70.89 4.24005 70.89 8.64005V48.49C70.89 57.29 78.03 64.42 86.83 64.42H197.37C201.77 64.42 205.34 67.99 205.34 72.39V127.14C205.34 131.54 201.77 135.11 197.37 135.11H86.83C78.03 135.11 70.89 142.25 70.89 151.05L70.8799 151.07Z" fill="#68DE68"/>
</svg>
